<?xml version="1.0" encoding="utf-8"?>
<!-- Generator: Adobe Illustrator 16.0.0, SVG Export Plug-In . SVG Version: 6.00 Build 0)  -->
<!DOCTYPE svg PUBLIC "-//W3C//DTD SVG 1.1//EN" "http://www.w3.org/Graphics/SVG/1.1/DTD/svg11.dtd">
<svg version="1.1" id="Layer_1" xmlns="http://www.w3.org/2000/svg" xmlns:xlink="http://www.w3.org/1999/xlink" x="0px" y="0px"
	 width="350px" height="232.466px" viewBox="0 0 350 232.466" enable-background="new 0 0 350 232.466" xml:space="preserve">
<rect fill="#243945" width="350" height="232.466"/>
<g>
	<g>
		<path fill="#FFFFFF" stroke="#243945" stroke-miterlimit="10" d="M48.194,120.822l15.152-0.949
			c0.328,2.461,0.996,4.336,2.004,5.625c1.641,2.086,3.984,3.129,7.031,3.129c2.273,0,4.025-0.533,5.256-1.6
			s1.846-2.303,1.846-3.709c0-1.336-0.586-2.531-1.758-3.586s-3.891-2.051-8.156-2.988c-6.984-1.57-11.965-3.656-14.941-6.258
			c-3-2.602-4.5-5.918-4.5-9.949c0-2.648,0.768-5.15,2.303-7.506s3.844-4.207,6.926-5.555c3.082-1.348,7.307-2.021,12.674-2.021
			c6.586,0,11.607,1.225,15.064,3.674c3.457,2.449,5.514,6.346,6.17,11.689l-15.012,0.879c-0.398-2.32-1.236-4.008-2.514-5.062
			s-3.041-1.582-5.291-1.582c-1.852,0-3.246,0.393-4.184,1.178c-0.938,0.786-1.406,1.74-1.406,2.865c0,0.821,0.387,1.559,1.16,2.215
			c0.75,0.68,2.531,1.313,5.344,1.898c6.961,1.5,11.947,3.018,14.959,4.553c3.012,1.535,5.203,3.44,6.574,5.713
			c1.371,2.273,2.057,4.816,2.057,7.629c0,3.305-0.914,6.352-2.742,9.141c-1.828,2.789-4.383,4.904-7.664,6.346
			s-7.418,2.162-12.41,2.162c-8.766,0-14.836-1.688-18.211-5.062S48.64,126.025,48.194,120.822z"/>
		<path fill="#FFFFFF" stroke="#243945" stroke-miterlimit="10" d="M97.659,86.334h15.127l5.445,28.853l7.971-28.853h15.072
			l7.99,28.814l5.452-28.814h15.048l-11.361,51.54h-15.617l-9.039-32.45l-9.004,32.45h-15.617L97.659,86.334z"/>
	</g>
</g>
<g>
	<path fill="#FFFFFF" stroke="#243945" stroke-miterlimit="10" d="M225.102,116.814v21.059h-15.996v-51.54h39.375v11.074h-23.379v9"
		/>
	<path fill="#FFFFFF" stroke="#243945" stroke-miterlimit="10" d="M253.438,86.334h48.41v12.727h-16.242v38.813H269.68V99.061
		h-16.242V86.334z"/>
</g>
<path fill-rule="evenodd" clip-rule="evenodd" fill="#CD4D27" stroke="#243945" stroke-width="2" stroke-miterlimit="10" d="
	M191.992,33.409c0,0-15.527,20.836-18.212,37.631c-2.686,16.795-0.518,31.295-0.518,31.295s-11.695,2.877-11.932,10.605
	l11.273,4.746c0,0,2.934,0.325,2.129,5.32s2.679,40.13,10.937,58.73c3.092,8.598,7.408,14.949,11.75,17.523
	c1.342-5.758,1.768-9.609,3.221-12.268c0.955-2.324,1.686-53.57-2.75-62.688c1.479-1.839,4.215-5.397,10.537-6.304
	c6.324-0.906,15.25-1.666,15.25-1.666s17.418,0.002,20.418,1.002c-1.543-4.268-2.168-6.667-2.168-6.667l2.168-5.166l-18.842-0.129
	l-24.314-4.61c0,0-4.602-1.876-5.268-4.876S202.467,49.814,191.992,33.409z"/>
<g>
	<path fill="#FFFFFF" stroke="#243945" stroke-miterlimit="10" d="M48.39,143.465h7.445l9.713,14.273v-14.273h7.516v25.799h-7.516
		l-9.66-14.166v14.166H48.39V143.465z"/>
	<path fill="#FFFFFF" stroke="#243945" stroke-miterlimit="10" d="M94.221,165.004h-9.05l-1.258,4.26h-8.141l9.697-25.799h8.695
		l9.695,25.799h-8.349L94.221,165.004z M92.567,159.426l-2.848-9.273l-2.818,9.273H92.567z"/>
	<path fill="#FFFFFF" stroke="#243945" stroke-miterlimit="10" d="M103.86,143.465h8.333L118,162.032l5.732-18.566h8.091
		l-9.579,25.799h-8.641L103.86,143.465z"/>
	<path fill="#FFFFFF" stroke="#243945" stroke-miterlimit="10" d="M134.745,143.465h7.989v25.799h-7.989V143.465z"/>
	<path fill="#FFFFFF" stroke="#243945" stroke-miterlimit="10" d="M161.423,159.918v-5.367h12.319v11
		c-2.358,1.607-4.443,2.701-6.256,3.281c-1.813,0.58-3.963,0.871-6.45,0.871c-3.062,0-5.559-0.521-7.488-1.566
		c-1.93-1.043-3.426-2.598-4.486-4.664c-1.062-2.064-1.594-4.434-1.594-7.109c0-2.814,0.581-5.264,1.742-7.348
		c1.162-2.082,2.863-3.662,5.104-4.742c1.748-0.832,4.101-1.25,7.057-1.25c2.852,0,4.984,0.26,6.397,0.775s2.587,1.316,3.521,2.402
		c0.932,1.084,1.633,2.461,2.102,4.127L165.7,151.7c-0.316-0.973-0.854-1.717-1.61-2.234c-0.757-0.516-1.722-0.773-2.896-0.773
		c-1.748,0-3.141,0.607-4.18,1.82c-1.037,1.215-1.557,3.137-1.557,5.764c0,2.793,0.525,4.787,1.574,5.984
		c1.051,1.195,2.514,1.795,4.391,1.795c0.893,0,1.743-0.129,2.553-0.389c0.809-0.258,1.736-0.697,2.78-1.318v-2.43H161.423z"/>
	<path fill="#FFFFFF" stroke="#243945" stroke-miterlimit="10" d="M194.337,165.004h-9.05l-1.258,4.26h-8.141l9.697-25.799h8.695
		l9.695,25.799h-8.349L194.337,165.004z M192.684,159.426l-2.848-9.273l-2.818,9.273H192.684z"/>
	<path fill="#FFFFFF" stroke="#243945" stroke-miterlimit="10" d="M204.697,143.465h24.232v6.369h-8.13v19.43h-7.972v-19.43h-8.131
		V143.465z"/>
	<path fill="#FFFFFF" stroke="#243945" stroke-miterlimit="10" d="M232.854,143.465h7.989v25.799h-7.989V143.465z"/>
	<path fill="#FFFFFF" stroke="#243945" stroke-miterlimit="10" d="M245.561,156.381c0-4.211,1.173-7.49,3.52-9.838
		c2.346-2.346,5.613-3.52,9.803-3.52c4.293,0,7.602,1.154,9.925,3.459s3.484,5.535,3.484,9.688c0,3.016-0.507,5.488-1.522,7.418
		c-1.015,1.93-2.48,3.432-4.399,4.506c-1.918,1.072-4.309,1.609-7.171,1.609c-2.91,0-5.318-0.463-7.225-1.391
		c-1.906-0.926-3.451-2.393-4.637-4.398C246.152,161.907,245.561,159.397,245.561,156.381z M253.532,156.417
		c0,2.605,0.484,4.477,1.452,5.615c0.968,1.137,2.285,1.707,3.951,1.707c1.713,0,3.038-0.559,3.977-1.672
		c0.938-1.115,1.408-3.115,1.408-6.002c0-2.428-0.49-4.203-1.47-5.324c-0.979-1.119-2.308-1.68-3.985-1.68
		c-1.607,0-2.898,0.568-3.872,1.707S253.532,153.79,253.532,156.417z"/>
	<path fill="#FFFFFF" stroke="#243945" stroke-miterlimit="10" d="M276.639,143.465h7.444l9.714,14.273v-14.273h7.515v25.799h-7.515
		l-9.661-14.166v14.166h-7.497V143.465z"/>
</g>
</svg>
